<mxfile host="app.diagrams.net" modified="2024-03-28T11:14:17.234Z" agent="Mozilla/5.0 (Windows NT 10.0; Win64; x64) AppleWebKit/537.36 (KHTML, like Gecko) Chrome/120.0.0.0 YaBrowser/24.1.0.0 Safari/537.36" etag="O3xVsX117gOogO2Hzdan" version="24.0.8" type="github">
  <diagram name="Страница — 1" id="J6H12MEITPxl5pAKT5ov">
    <mxGraphModel dx="1236" dy="668" grid="1" gridSize="10" guides="1" tooltips="1" connect="1" arrows="1" fold="1" page="1" pageScale="1" pageWidth="827" pageHeight="1169" math="0" shadow="0">
      <root>
        <mxCell id="0" />
        <mxCell id="1" parent="0" />
        <mxCell id="q0NDTEnve2Rrj_Poey3g-35" style="edgeStyle=orthogonalEdgeStyle;rounded=0;orthogonalLoop=1;jettySize=auto;html=1;exitX=0.5;exitY=0.5;exitDx=0;exitDy=0;exitPerimeter=0;entryX=0;entryY=0.5;entryDx=0;entryDy=0;" edge="1" parent="1" source="q0NDTEnve2Rrj_Poey3g-1" target="q0NDTEnve2Rrj_Poey3g-33">
          <mxGeometry relative="1" as="geometry" />
        </mxCell>
        <mxCell id="q0NDTEnve2Rrj_Poey3g-39" style="edgeStyle=orthogonalEdgeStyle;rounded=0;orthogonalLoop=1;jettySize=auto;html=1;exitX=0.5;exitY=0;exitDx=0;exitDy=0;exitPerimeter=0;entryX=0.5;entryY=1;entryDx=0;entryDy=0;" edge="1" parent="1" source="q0NDTEnve2Rrj_Poey3g-1" target="q0NDTEnve2Rrj_Poey3g-37">
          <mxGeometry relative="1" as="geometry">
            <Array as="points">
              <mxPoint x="85" y="145" />
            </Array>
          </mxGeometry>
        </mxCell>
        <mxCell id="q0NDTEnve2Rrj_Poey3g-42" style="edgeStyle=orthogonalEdgeStyle;rounded=0;orthogonalLoop=1;jettySize=auto;html=1;exitX=0.75;exitY=0.1;exitDx=0;exitDy=0;exitPerimeter=0;" edge="1" parent="1" source="q0NDTEnve2Rrj_Poey3g-1" target="q0NDTEnve2Rrj_Poey3g-40">
          <mxGeometry relative="1" as="geometry">
            <Array as="points">
              <mxPoint x="92" y="190" />
              <mxPoint x="270" y="190" />
            </Array>
          </mxGeometry>
        </mxCell>
        <mxCell id="q0NDTEnve2Rrj_Poey3g-1" value="Руководство &lt;br&gt;&lt;div&gt;компании&lt;/div&gt;" style="shape=umlActor;verticalLabelPosition=bottom;verticalAlign=top;html=1;outlineConnect=0;" vertex="1" parent="1">
          <mxGeometry x="70" y="230" width="30" height="60" as="geometry" />
        </mxCell>
        <mxCell id="q0NDTEnve2Rrj_Poey3g-12" style="edgeStyle=orthogonalEdgeStyle;rounded=0;orthogonalLoop=1;jettySize=auto;html=1;exitX=0.5;exitY=0.5;exitDx=0;exitDy=0;exitPerimeter=0;entryX=0.5;entryY=0;entryDx=0;entryDy=0;" edge="1" parent="1" source="q0NDTEnve2Rrj_Poey3g-2" target="q0NDTEnve2Rrj_Poey3g-10">
          <mxGeometry relative="1" as="geometry">
            <Array as="points">
              <mxPoint x="555" y="130" />
              <mxPoint x="410" y="130" />
            </Array>
          </mxGeometry>
        </mxCell>
        <mxCell id="q0NDTEnve2Rrj_Poey3g-18" style="edgeStyle=orthogonalEdgeStyle;rounded=0;orthogonalLoop=1;jettySize=auto;html=1;exitX=0.5;exitY=0.5;exitDx=0;exitDy=0;exitPerimeter=0;" edge="1" parent="1" source="q0NDTEnve2Rrj_Poey3g-2">
          <mxGeometry relative="1" as="geometry">
            <mxPoint x="529.9799999999999" y="140" as="sourcePoint" />
            <mxPoint x="484.9799999999999" y="280" as="targetPoint" />
          </mxGeometry>
        </mxCell>
        <mxCell id="q0NDTEnve2Rrj_Poey3g-22" style="edgeStyle=orthogonalEdgeStyle;rounded=0;orthogonalLoop=1;jettySize=auto;html=1;exitX=0.5;exitY=0.5;exitDx=0;exitDy=0;exitPerimeter=0;entryX=0.5;entryY=0;entryDx=0;entryDy=0;" edge="1" parent="1" source="q0NDTEnve2Rrj_Poey3g-2" target="q0NDTEnve2Rrj_Poey3g-20">
          <mxGeometry relative="1" as="geometry">
            <Array as="points">
              <mxPoint x="555" y="130" />
              <mxPoint x="743" y="130" />
            </Array>
          </mxGeometry>
        </mxCell>
        <mxCell id="q0NDTEnve2Rrj_Poey3g-30" style="edgeStyle=orthogonalEdgeStyle;rounded=0;orthogonalLoop=1;jettySize=auto;html=1;exitX=0.75;exitY=0.1;exitDx=0;exitDy=0;exitPerimeter=0;entryX=0.5;entryY=0;entryDx=0;entryDy=0;" edge="1" parent="1" source="q0NDTEnve2Rrj_Poey3g-2">
          <mxGeometry relative="1" as="geometry">
            <mxPoint x="581.25" y="111" as="sourcePoint" />
            <mxPoint x="648.75" y="435" as="targetPoint" />
            <Array as="points">
              <mxPoint x="582" y="116" />
              <mxPoint x="582" y="125" />
              <mxPoint x="614" y="125" />
              <mxPoint x="614" y="280" />
              <mxPoint x="649" y="280" />
            </Array>
          </mxGeometry>
        </mxCell>
        <mxCell id="q0NDTEnve2Rrj_Poey3g-45" style="edgeStyle=orthogonalEdgeStyle;rounded=0;orthogonalLoop=1;jettySize=auto;html=1;exitX=0.75;exitY=0.1;exitDx=0;exitDy=0;exitPerimeter=0;entryX=0;entryY=0.5;entryDx=0;entryDy=0;" edge="1" parent="1" source="q0NDTEnve2Rrj_Poey3g-2" target="q0NDTEnve2Rrj_Poey3g-43">
          <mxGeometry relative="1" as="geometry">
            <Array as="points">
              <mxPoint x="615" y="76" />
              <mxPoint x="615" y="60" />
            </Array>
          </mxGeometry>
        </mxCell>
        <mxCell id="q0NDTEnve2Rrj_Poey3g-49" style="edgeStyle=orthogonalEdgeStyle;rounded=0;orthogonalLoop=1;jettySize=auto;html=1;exitX=0.25;exitY=0.1;exitDx=0;exitDy=0;exitPerimeter=0;entryX=1;entryY=0.5;entryDx=0;entryDy=0;" edge="1" parent="1" source="q0NDTEnve2Rrj_Poey3g-2" target="q0NDTEnve2Rrj_Poey3g-47">
          <mxGeometry relative="1" as="geometry" />
        </mxCell>
        <mxCell id="q0NDTEnve2Rrj_Poey3g-2" value="Менеджеры" style="shape=umlActor;verticalLabelPosition=bottom;verticalAlign=top;html=1;outlineConnect=0;" vertex="1" parent="1">
          <mxGeometry x="545" y="110" width="30" height="60" as="geometry" />
        </mxCell>
        <mxCell id="q0NDTEnve2Rrj_Poey3g-59" style="edgeStyle=orthogonalEdgeStyle;rounded=0;orthogonalLoop=1;jettySize=auto;html=1;exitX=0.75;exitY=0.1;exitDx=0;exitDy=0;exitPerimeter=0;" edge="1" parent="1" source="q0NDTEnve2Rrj_Poey3g-3" target="q0NDTEnve2Rrj_Poey3g-60">
          <mxGeometry relative="1" as="geometry">
            <mxPoint x="89.99999999999977" y="750" as="targetPoint" />
            <Array as="points">
              <mxPoint x="123" y="830" />
              <mxPoint x="160" y="830" />
              <mxPoint x="160" y="800" />
            </Array>
          </mxGeometry>
        </mxCell>
        <mxCell id="q0NDTEnve2Rrj_Poey3g-66" style="edgeStyle=orthogonalEdgeStyle;rounded=0;orthogonalLoop=1;jettySize=auto;html=1;exitX=1;exitY=1;exitDx=0;exitDy=0;exitPerimeter=0;entryX=0;entryY=0.5;entryDx=0;entryDy=0;" edge="1" parent="1" source="q0NDTEnve2Rrj_Poey3g-3" target="q0NDTEnve2Rrj_Poey3g-64">
          <mxGeometry relative="1" as="geometry" />
        </mxCell>
        <mxCell id="q0NDTEnve2Rrj_Poey3g-3" value="Бухгалтерия" style="shape=umlActor;verticalLabelPosition=bottom;verticalAlign=top;html=1;outlineConnect=0;" vertex="1" parent="1">
          <mxGeometry x="100" y="820" width="30" height="60" as="geometry" />
        </mxCell>
        <mxCell id="q0NDTEnve2Rrj_Poey3g-14" style="edgeStyle=orthogonalEdgeStyle;rounded=0;orthogonalLoop=1;jettySize=auto;html=1;exitX=0.5;exitY=0.5;exitDx=0;exitDy=0;exitPerimeter=0;entryX=1;entryY=0.5;entryDx=0;entryDy=0;" edge="1" parent="1" source="q0NDTEnve2Rrj_Poey3g-4" target="q0NDTEnve2Rrj_Poey3g-11">
          <mxGeometry relative="1" as="geometry" />
        </mxCell>
        <mxCell id="q0NDTEnve2Rrj_Poey3g-19" style="edgeStyle=orthogonalEdgeStyle;rounded=0;orthogonalLoop=1;jettySize=auto;html=1;exitX=0.5;exitY=0;exitDx=0;exitDy=0;exitPerimeter=0;" edge="1" parent="1" source="q0NDTEnve2Rrj_Poey3g-4" target="q0NDTEnve2Rrj_Poey3g-16">
          <mxGeometry relative="1" as="geometry">
            <mxPoint x="515" y="610" as="sourcePoint" />
            <mxPoint x="540" y="380" as="targetPoint" />
            <Array as="points" />
          </mxGeometry>
        </mxCell>
        <mxCell id="q0NDTEnve2Rrj_Poey3g-31" style="edgeStyle=orthogonalEdgeStyle;rounded=0;orthogonalLoop=1;jettySize=auto;html=1;exitX=0.5;exitY=0.5;exitDx=0;exitDy=0;exitPerimeter=0;" edge="1" parent="1" source="q0NDTEnve2Rrj_Poey3g-4" target="q0NDTEnve2Rrj_Poey3g-28">
          <mxGeometry relative="1" as="geometry" />
        </mxCell>
        <mxCell id="q0NDTEnve2Rrj_Poey3g-36" style="edgeStyle=orthogonalEdgeStyle;rounded=0;orthogonalLoop=1;jettySize=auto;html=1;exitX=0.25;exitY=0.1;exitDx=0;exitDy=0;exitPerimeter=0;" edge="1" parent="1" source="q0NDTEnve2Rrj_Poey3g-4">
          <mxGeometry relative="1" as="geometry">
            <mxPoint x="240.0000000000001" y="400" as="targetPoint" />
            <Array as="points">
              <mxPoint x="518" y="520" />
              <mxPoint x="240" y="520" />
            </Array>
          </mxGeometry>
        </mxCell>
        <mxCell id="q0NDTEnve2Rrj_Poey3g-55" style="edgeStyle=orthogonalEdgeStyle;rounded=0;orthogonalLoop=1;jettySize=auto;html=1;exitX=0;exitY=1;exitDx=0;exitDy=0;exitPerimeter=0;entryX=0;entryY=0.5;entryDx=0;entryDy=0;" edge="1" parent="1" source="q0NDTEnve2Rrj_Poey3g-4" target="q0NDTEnve2Rrj_Poey3g-50">
          <mxGeometry relative="1" as="geometry">
            <Array as="points">
              <mxPoint x="460" y="630" />
            </Array>
          </mxGeometry>
        </mxCell>
        <mxCell id="q0NDTEnve2Rrj_Poey3g-4" value="Складские &lt;br&gt;работники" style="shape=umlActor;verticalLabelPosition=bottom;verticalAlign=top;html=1;outlineConnect=0;" vertex="1" parent="1">
          <mxGeometry x="510" y="570" width="30" height="60" as="geometry" />
        </mxCell>
        <mxCell id="q0NDTEnve2Rrj_Poey3g-15" style="edgeStyle=orthogonalEdgeStyle;rounded=0;orthogonalLoop=1;jettySize=auto;html=1;exitX=0.5;exitY=0.5;exitDx=0;exitDy=0;exitPerimeter=0;entryX=0.5;entryY=1;entryDx=0;entryDy=0;" edge="1" parent="1" source="q0NDTEnve2Rrj_Poey3g-7" target="q0NDTEnve2Rrj_Poey3g-10">
          <mxGeometry relative="1" as="geometry">
            <mxPoint x="805" y="1070" as="sourcePoint" />
            <mxPoint x="630" y="600" as="targetPoint" />
            <Array as="points">
              <mxPoint x="400" y="1030" />
              <mxPoint x="400" y="625" />
            </Array>
          </mxGeometry>
        </mxCell>
        <mxCell id="q0NDTEnve2Rrj_Poey3g-23" style="edgeStyle=orthogonalEdgeStyle;rounded=0;orthogonalLoop=1;jettySize=auto;html=1;exitX=0.5;exitY=0.5;exitDx=0;exitDy=0;exitPerimeter=0;" edge="1" parent="1" source="q0NDTEnve2Rrj_Poey3g-7">
          <mxGeometry relative="1" as="geometry">
            <mxPoint x="746.2500000000001" y="1070" as="sourcePoint" />
            <mxPoint x="746" y="730" as="targetPoint" />
            <Array as="points">
              <mxPoint x="746" y="1030" />
            </Array>
          </mxGeometry>
        </mxCell>
        <mxCell id="q0NDTEnve2Rrj_Poey3g-69" style="edgeStyle=orthogonalEdgeStyle;rounded=0;orthogonalLoop=1;jettySize=auto;html=1;exitX=0;exitY=1;exitDx=0;exitDy=0;exitPerimeter=0;" edge="1" parent="1" source="q0NDTEnve2Rrj_Poey3g-7" target="q0NDTEnve2Rrj_Poey3g-68">
          <mxGeometry relative="1" as="geometry">
            <mxPoint x="170" y="1050" as="targetPoint" />
            <Array as="points">
              <mxPoint x="600" y="1080" />
              <mxPoint x="415" y="1080" />
              <mxPoint x="415" y="1040" />
              <mxPoint x="170" y="1040" />
            </Array>
          </mxGeometry>
        </mxCell>
        <mxCell id="q0NDTEnve2Rrj_Poey3g-74" style="edgeStyle=orthogonalEdgeStyle;rounded=0;orthogonalLoop=1;jettySize=auto;html=1;exitX=1;exitY=1;exitDx=0;exitDy=0;exitPerimeter=0;entryX=1;entryY=0.5;entryDx=0;entryDy=0;" edge="1" parent="1" source="q0NDTEnve2Rrj_Poey3g-7" target="q0NDTEnve2Rrj_Poey3g-70">
          <mxGeometry relative="1" as="geometry" />
        </mxCell>
        <mxCell id="q0NDTEnve2Rrj_Poey3g-77" style="edgeStyle=orthogonalEdgeStyle;rounded=0;orthogonalLoop=1;jettySize=auto;html=1;exitX=0.5;exitY=0.5;exitDx=0;exitDy=0;exitPerimeter=0;entryX=0.524;entryY=0.01;entryDx=0;entryDy=0;entryPerimeter=0;" edge="1" parent="1" source="q0NDTEnve2Rrj_Poey3g-7" target="q0NDTEnve2Rrj_Poey3g-75">
          <mxGeometry relative="1" as="geometry">
            <Array as="points">
              <mxPoint x="615" y="1040" />
              <mxPoint x="760" y="1040" />
            </Array>
          </mxGeometry>
        </mxCell>
        <mxCell id="q0NDTEnve2Rrj_Poey3g-7" value="Клиенты" style="shape=umlActor;verticalLabelPosition=bottom;verticalAlign=top;html=1;outlineConnect=0;" vertex="1" parent="1">
          <mxGeometry x="600" y="1000" width="30" height="60" as="geometry" />
        </mxCell>
        <mxCell id="q0NDTEnve2Rrj_Poey3g-25" value="" style="group" vertex="1" connectable="0" parent="1">
          <mxGeometry x="350" y="570" width="120" height="55" as="geometry" />
        </mxCell>
        <mxCell id="q0NDTEnve2Rrj_Poey3g-10" value="" style="ellipse;whiteSpace=wrap;html=1;" vertex="1" parent="q0NDTEnve2Rrj_Poey3g-25">
          <mxGeometry width="120" height="55" as="geometry" />
        </mxCell>
        <mxCell id="q0NDTEnve2Rrj_Poey3g-11" value="&lt;span style=&quot;line-height: 107%;&quot;&gt;Просмотр&lt;br&gt;информации о товарах&amp;nbsp;&lt;/span&gt;" style="text;html=1;align=center;verticalAlign=middle;whiteSpace=wrap;rounded=0;" vertex="1" parent="q0NDTEnve2Rrj_Poey3g-25">
          <mxGeometry y="15" width="120" height="30" as="geometry" />
        </mxCell>
        <mxCell id="q0NDTEnve2Rrj_Poey3g-26" value="" style="group" vertex="1" connectable="0" parent="1">
          <mxGeometry x="690" y="670" width="105" height="60" as="geometry" />
        </mxCell>
        <mxCell id="q0NDTEnve2Rrj_Poey3g-20" value="" style="ellipse;whiteSpace=wrap;html=1;" vertex="1" parent="q0NDTEnve2Rrj_Poey3g-26">
          <mxGeometry width="105" height="60" as="geometry" />
        </mxCell>
        <mxCell id="q0NDTEnve2Rrj_Poey3g-21" value="&lt;span style=&quot;line-height: 107%; font-size: 8px;&quot;&gt;Регистрация&lt;br&gt;и обновление контактной информации&amp;nbsp;&lt;/span&gt;" style="text;html=1;align=center;verticalAlign=middle;whiteSpace=wrap;rounded=0;" vertex="1" parent="q0NDTEnve2Rrj_Poey3g-26">
          <mxGeometry x="2.5" y="15" width="100" height="30" as="geometry" />
        </mxCell>
        <mxCell id="q0NDTEnve2Rrj_Poey3g-16" value="" style="ellipse;whiteSpace=wrap;html=1;" vertex="1" parent="1">
          <mxGeometry x="455" y="280" width="120" height="80" as="geometry" />
        </mxCell>
        <mxCell id="q0NDTEnve2Rrj_Poey3g-17" value="&lt;span style=&quot;font-size:11.0pt;line-height:107%;&lt;br/&gt;font-family:&amp;quot;Calibri&amp;quot;,sans-serif;mso-ascii-theme-font:minor-latin;mso-fareast-font-family:&lt;br/&gt;Calibri;mso-fareast-theme-font:minor-latin;mso-hansi-theme-font:minor-latin;&lt;br/&gt;mso-bidi-font-family:&amp;quot;Times New Roman&amp;quot;;mso-bidi-theme-font:minor-bidi;&lt;br/&gt;mso-ansi-language:RU;mso-fareast-language:EN-US;mso-bidi-language:AR-SA&quot;&gt;Изменение&lt;br/&gt;статуса заказа&amp;nbsp;&lt;/span&gt;" style="text;html=1;align=center;verticalAlign=middle;whiteSpace=wrap;rounded=0;" vertex="1" parent="1">
          <mxGeometry x="460" y="305" width="110" height="30" as="geometry" />
        </mxCell>
        <mxCell id="q0NDTEnve2Rrj_Poey3g-27" style="edgeStyle=orthogonalEdgeStyle;rounded=0;orthogonalLoop=1;jettySize=auto;html=1;exitX=0.5;exitY=1;exitDx=0;exitDy=0;" edge="1" parent="1" source="q0NDTEnve2Rrj_Poey3g-17" target="q0NDTEnve2Rrj_Poey3g-17">
          <mxGeometry relative="1" as="geometry" />
        </mxCell>
        <mxCell id="q0NDTEnve2Rrj_Poey3g-28" value="" style="ellipse;whiteSpace=wrap;html=1;" vertex="1" parent="1">
          <mxGeometry x="575" y="440" width="120" height="80" as="geometry" />
        </mxCell>
        <mxCell id="q0NDTEnve2Rrj_Poey3g-29" value="&lt;span style=&quot;font-size:11.0pt;line-height:107%;&lt;br/&gt;font-family:&amp;quot;Calibri&amp;quot;,sans-serif;mso-ascii-theme-font:minor-latin;mso-fareast-font-family:&lt;br/&gt;Calibri;mso-fareast-theme-font:minor-latin;mso-hansi-theme-font:minor-latin;&lt;br/&gt;mso-bidi-font-family:&amp;quot;Times New Roman&amp;quot;;mso-bidi-theme-font:minor-bidi;&lt;br/&gt;mso-ansi-language:RU;mso-fareast-language:EN-US;mso-bidi-language:AR-SA&quot;&gt;Отслеживание&lt;br/&gt;выполнения заказов&amp;nbsp;&lt;/span&gt;" style="text;html=1;align=center;verticalAlign=middle;whiteSpace=wrap;rounded=0;" vertex="1" parent="1">
          <mxGeometry x="605" y="469" width="65" height="30" as="geometry" />
        </mxCell>
        <mxCell id="q0NDTEnve2Rrj_Poey3g-32" style="edgeStyle=orthogonalEdgeStyle;rounded=0;orthogonalLoop=1;jettySize=auto;html=1;exitX=0.5;exitY=0;exitDx=0;exitDy=0;exitPerimeter=0;entryX=0.776;entryY=0.908;entryDx=0;entryDy=0;entryPerimeter=0;" edge="1" parent="1" source="q0NDTEnve2Rrj_Poey3g-7" target="q0NDTEnve2Rrj_Poey3g-28">
          <mxGeometry relative="1" as="geometry">
            <mxPoint x="655" y="989.4" as="sourcePoint" />
            <mxPoint x="720" y="520" as="targetPoint" />
            <Array as="points">
              <mxPoint x="680" y="1000" />
              <mxPoint x="680" y="530" />
              <mxPoint x="668" y="530" />
            </Array>
          </mxGeometry>
        </mxCell>
        <mxCell id="q0NDTEnve2Rrj_Poey3g-33" value="" style="ellipse;whiteSpace=wrap;html=1;" vertex="1" parent="1">
          <mxGeometry x="180" y="320" width="120" height="80" as="geometry" />
        </mxCell>
        <mxCell id="q0NDTEnve2Rrj_Poey3g-34" value="&lt;span style=&quot;font-size:11.0pt;line-height:107%;&lt;br/&gt;font-family:&amp;quot;Calibri&amp;quot;,sans-serif;mso-ascii-theme-font:minor-latin;mso-fareast-font-family:&lt;br/&gt;Calibri;mso-fareast-theme-font:minor-latin;mso-hansi-theme-font:minor-latin;&lt;br/&gt;mso-bidi-font-family:&amp;quot;Times New Roman&amp;quot;;mso-bidi-theme-font:minor-bidi;&lt;br/&gt;mso-ansi-language:RU;mso-fareast-language:EN-US;mso-bidi-language:AR-SA&quot;&gt;Планирование&lt;br/&gt;закупок&amp;nbsp;&lt;/span&gt;" style="text;html=1;align=center;verticalAlign=middle;whiteSpace=wrap;rounded=0;" vertex="1" parent="1">
          <mxGeometry x="202" y="347" width="80" height="30" as="geometry" />
        </mxCell>
        <mxCell id="q0NDTEnve2Rrj_Poey3g-37" value="" style="ellipse;whiteSpace=wrap;html=1;" vertex="1" parent="1">
          <mxGeometry x="70" y="75" width="120" height="70" as="geometry" />
        </mxCell>
        <mxCell id="q0NDTEnve2Rrj_Poey3g-38" value="&lt;span style=&quot;font-size:11.0pt;line-height:107%;&lt;br/&gt;font-family:&amp;quot;Calibri&amp;quot;,sans-serif;mso-ascii-theme-font:minor-latin;mso-fareast-font-family:&lt;br/&gt;Calibri;mso-fareast-theme-font:minor-latin;mso-hansi-theme-font:minor-latin;&lt;br/&gt;mso-bidi-font-family:&amp;quot;Times New Roman&amp;quot;;mso-bidi-theme-font:minor-bidi;&lt;br/&gt;mso-ansi-language:RU;mso-fareast-language:EN-US;mso-bidi-language:AR-SA&quot;&gt;Контроль&lt;br/&gt;финансовых показателей&amp;nbsp;&lt;/span&gt;" style="text;html=1;align=center;verticalAlign=middle;whiteSpace=wrap;rounded=0;" vertex="1" parent="1">
          <mxGeometry x="92.5" y="93" width="75" height="30" as="geometry" />
        </mxCell>
        <mxCell id="q0NDTEnve2Rrj_Poey3g-40" value="" style="ellipse;whiteSpace=wrap;html=1;" vertex="1" parent="1">
          <mxGeometry x="210" y="85" width="120" height="80" as="geometry" />
        </mxCell>
        <mxCell id="q0NDTEnve2Rrj_Poey3g-41" value="&lt;span style=&quot;font-size:11.0pt;line-height:107%;&lt;br/&gt;font-family:&amp;quot;Calibri&amp;quot;,sans-serif;mso-ascii-theme-font:minor-latin;mso-fareast-font-family:&lt;br/&gt;Calibri;mso-fareast-theme-font:minor-latin;mso-hansi-theme-font:minor-latin;&lt;br/&gt;mso-bidi-font-family:&amp;quot;Times New Roman&amp;quot;;mso-bidi-theme-font:minor-bidi;&lt;br/&gt;mso-ansi-language:RU;mso-fareast-language:EN-US;mso-bidi-language:AR-SA&quot;&gt;Анализ&lt;br/&gt;отчетов о продажах&amp;nbsp;&lt;/span&gt;" style="text;html=1;align=center;verticalAlign=middle;whiteSpace=wrap;rounded=0;" vertex="1" parent="1">
          <mxGeometry x="220" y="110" width="100" height="30" as="geometry" />
        </mxCell>
        <mxCell id="q0NDTEnve2Rrj_Poey3g-43" value="" style="ellipse;whiteSpace=wrap;html=1;" vertex="1" parent="1">
          <mxGeometry x="660" y="31" width="120" height="80" as="geometry" />
        </mxCell>
        <mxCell id="q0NDTEnve2Rrj_Poey3g-44" value="&lt;span style=&quot;font-size:11.0pt;line-height:107%;&lt;br/&gt;font-family:&amp;quot;Calibri&amp;quot;,sans-serif;mso-ascii-theme-font:minor-latin;mso-fareast-font-family:&lt;br/&gt;Calibri;mso-fareast-theme-font:minor-latin;mso-hansi-theme-font:minor-latin;&lt;br/&gt;mso-bidi-font-family:&amp;quot;Times New Roman&amp;quot;;mso-bidi-theme-font:minor-bidi;&lt;br/&gt;mso-ansi-language:RU;mso-fareast-language:EN-US;mso-bidi-language:AR-SA&quot;&gt;Регистрация&lt;br/&gt;новых заказов&amp;nbsp;&lt;/span&gt;" style="text;html=1;align=center;verticalAlign=middle;whiteSpace=wrap;rounded=0;" vertex="1" parent="1">
          <mxGeometry x="680" y="56" width="80" height="30" as="geometry" />
        </mxCell>
        <mxCell id="q0NDTEnve2Rrj_Poey3g-47" value="" style="ellipse;whiteSpace=wrap;html=1;" vertex="1" parent="1">
          <mxGeometry x="364" y="40" width="120" height="60" as="geometry" />
        </mxCell>
        <mxCell id="q0NDTEnve2Rrj_Poey3g-48" value="&lt;span style=&quot;font-size:11.0pt;line-height:107%;&lt;br/&gt;font-family:&amp;quot;Calibri&amp;quot;,sans-serif;mso-ascii-theme-font:minor-latin;mso-fareast-font-family:&lt;br/&gt;Calibri;mso-fareast-theme-font:minor-latin;mso-hansi-theme-font:minor-latin;&lt;br/&gt;mso-bidi-font-family:&amp;quot;Times New Roman&amp;quot;;mso-bidi-theme-font:minor-bidi;&lt;br/&gt;mso-ansi-language:RU;mso-fareast-language:EN-US;mso-bidi-language:AR-SA&quot;&gt;Консультация&lt;br/&gt;клиентов&amp;nbsp;&lt;/span&gt;" style="text;html=1;align=center;verticalAlign=middle;whiteSpace=wrap;rounded=0;" vertex="1" parent="1">
          <mxGeometry x="392" y="56" width="70" height="30" as="geometry" />
        </mxCell>
        <mxCell id="q0NDTEnve2Rrj_Poey3g-52" value="" style="group" vertex="1" connectable="0" parent="1">
          <mxGeometry x="460" y="710" width="90" height="60" as="geometry" />
        </mxCell>
        <mxCell id="q0NDTEnve2Rrj_Poey3g-50" value="" style="ellipse;whiteSpace=wrap;html=1;" vertex="1" parent="q0NDTEnve2Rrj_Poey3g-52">
          <mxGeometry width="90" height="60" as="geometry" />
        </mxCell>
        <mxCell id="q0NDTEnve2Rrj_Poey3g-51" value="&lt;span style=&quot;line-height: 107%; font-size: 11px;&quot;&gt;Прием&lt;br&gt;и регистрация поставок&amp;nbsp;&lt;/span&gt;" style="text;html=1;align=center;verticalAlign=middle;whiteSpace=wrap;rounded=0;" vertex="1" parent="q0NDTEnve2Rrj_Poey3g-52">
          <mxGeometry x="7.5" y="15" width="75" height="30" as="geometry" />
        </mxCell>
        <mxCell id="q0NDTEnve2Rrj_Poey3g-53" value="" style="ellipse;whiteSpace=wrap;html=1;" vertex="1" parent="1">
          <mxGeometry x="530" y="840" width="105" height="60" as="geometry" />
        </mxCell>
        <mxCell id="q0NDTEnve2Rrj_Poey3g-54" value="&lt;span style=&quot;line-height: 107%; font-size: 9px;&quot;&gt;Проверка&lt;br&gt;качества и количества товаров&amp;nbsp;&lt;/span&gt;" style="text;html=1;align=center;verticalAlign=middle;whiteSpace=wrap;rounded=0;" vertex="1" parent="1">
          <mxGeometry x="530" y="855" width="100" height="30" as="geometry" />
        </mxCell>
        <mxCell id="q0NDTEnve2Rrj_Poey3g-56" style="edgeStyle=orthogonalEdgeStyle;rounded=0;orthogonalLoop=1;jettySize=auto;html=1;exitX=1;exitY=1;exitDx=0;exitDy=0;exitPerimeter=0;entryX=0.5;entryY=0;entryDx=0;entryDy=0;" edge="1" parent="1" source="q0NDTEnve2Rrj_Poey3g-4" target="q0NDTEnve2Rrj_Poey3g-53">
          <mxGeometry relative="1" as="geometry">
            <Array as="points">
              <mxPoint x="596" y="630" />
              <mxPoint x="596" y="840" />
            </Array>
          </mxGeometry>
        </mxCell>
        <mxCell id="q0NDTEnve2Rrj_Poey3g-57" value="" style="ellipse;whiteSpace=wrap;html=1;" vertex="1" parent="1">
          <mxGeometry x="40" y="660" width="120" height="80" as="geometry" />
        </mxCell>
        <mxCell id="q0NDTEnve2Rrj_Poey3g-58" value="&lt;span style=&quot;font-size:11.0pt;line-height:107%;&lt;br/&gt;font-family:&amp;quot;Calibri&amp;quot;,sans-serif;mso-ascii-theme-font:minor-latin;mso-fareast-font-family:&lt;br/&gt;Calibri;mso-fareast-theme-font:minor-latin;mso-hansi-theme-font:minor-latin;&lt;br/&gt;mso-bidi-font-family:&amp;quot;Times New Roman&amp;quot;;mso-bidi-theme-font:minor-bidi;&lt;br/&gt;mso-ansi-language:RU;mso-fareast-language:EN-US;mso-bidi-language:AR-SA&quot;&gt;-&lt;br/&gt;Ведение финансового учета&lt;/span&gt;" style="text;html=1;align=center;verticalAlign=middle;whiteSpace=wrap;rounded=0;" vertex="1" parent="1">
          <mxGeometry x="70" y="680" width="70" height="30" as="geometry" />
        </mxCell>
        <mxCell id="q0NDTEnve2Rrj_Poey3g-60" value="" style="ellipse;whiteSpace=wrap;html=1;" vertex="1" parent="1">
          <mxGeometry x="209.99999999999977" y="760" width="120" height="80" as="geometry" />
        </mxCell>
        <mxCell id="q0NDTEnve2Rrj_Poey3g-61" style="edgeStyle=orthogonalEdgeStyle;rounded=0;orthogonalLoop=1;jettySize=auto;html=1;exitX=0.5;exitY=0;exitDx=0;exitDy=0;exitPerimeter=0;entryX=0.259;entryY=0.953;entryDx=0;entryDy=0;entryPerimeter=0;" edge="1" parent="1" source="q0NDTEnve2Rrj_Poey3g-3" target="q0NDTEnve2Rrj_Poey3g-57">
          <mxGeometry relative="1" as="geometry" />
        </mxCell>
        <mxCell id="q0NDTEnve2Rrj_Poey3g-62" value="&lt;span style=&quot;font-size: 13px; line-height: 107%;&quot;&gt;Формирование&lt;br&gt;финансовых отчетов&amp;nbsp;&lt;/span&gt;" style="text;html=1;align=center;verticalAlign=middle;whiteSpace=wrap;rounded=0;" vertex="1" parent="1">
          <mxGeometry x="240" y="790" width="60" height="30" as="geometry" />
        </mxCell>
        <mxCell id="q0NDTEnve2Rrj_Poey3g-64" value="" style="ellipse;whiteSpace=wrap;html=1;" vertex="1" parent="1">
          <mxGeometry x="210" y="900" width="100" height="80" as="geometry" />
        </mxCell>
        <mxCell id="q0NDTEnve2Rrj_Poey3g-65" value="&lt;span style=&quot;font-size:11.0pt;line-height:107%;&lt;br/&gt;font-family:&amp;quot;Calibri&amp;quot;,sans-serif;mso-ascii-theme-font:minor-latin;mso-fareast-font-family:&lt;br/&gt;Calibri;mso-fareast-theme-font:minor-latin;mso-hansi-theme-font:minor-latin;&lt;br/&gt;mso-bidi-font-family:&amp;quot;Times New Roman&amp;quot;;mso-bidi-theme-font:minor-bidi;&lt;br/&gt;mso-ansi-language:RU;mso-fareast-language:EN-US;mso-bidi-language:AR-SA&quot;&gt;Расчет&lt;br/&gt;затрат и доходов&amp;nbsp;&lt;/span&gt;" style="text;html=1;align=center;verticalAlign=middle;whiteSpace=wrap;rounded=0;" vertex="1" parent="1">
          <mxGeometry x="217" y="925" width="90" height="30" as="geometry" />
        </mxCell>
        <mxCell id="q0NDTEnve2Rrj_Poey3g-67" value="" style="ellipse;whiteSpace=wrap;html=1;" vertex="1" parent="1">
          <mxGeometry x="110" y="1060" width="120" height="80" as="geometry" />
        </mxCell>
        <mxCell id="q0NDTEnve2Rrj_Poey3g-68" value="&lt;span style=&quot;font-size: 13px; line-height: 107%;&quot;&gt;-&lt;br&gt;Просмотр ассортимента и характеристик товаров&amp;nbsp;&lt;/span&gt;" style="text;html=1;align=center;verticalAlign=middle;whiteSpace=wrap;rounded=0;" vertex="1" parent="1">
          <mxGeometry x="110" y="1079" width="120" height="30" as="geometry" />
        </mxCell>
        <mxCell id="q0NDTEnve2Rrj_Poey3g-70" value="" style="ellipse;whiteSpace=wrap;html=1;" vertex="1" parent="1">
          <mxGeometry x="464" y="1093" width="105" height="51" as="geometry" />
        </mxCell>
        <mxCell id="q0NDTEnve2Rrj_Poey3g-72" value="&lt;span style=&quot;font-size:11.0pt;line-height:107%;&lt;br/&gt;font-family:&amp;quot;Calibri&amp;quot;,sans-serif;mso-ascii-theme-font:minor-latin;mso-fareast-font-family:&lt;br/&gt;Calibri;mso-fareast-theme-font:minor-latin;mso-hansi-theme-font:minor-latin;&lt;br/&gt;mso-bidi-font-family:&amp;quot;Times New Roman&amp;quot;;mso-bidi-theme-font:minor-bidi;&lt;br/&gt;mso-ansi-language:RU;mso-fareast-language:EN-US;mso-bidi-language:AR-SA&quot;&gt;Оформление&lt;br/&gt;заказа&amp;nbsp;&lt;/span&gt;" style="text;html=1;align=center;verticalAlign=middle;whiteSpace=wrap;rounded=0;" vertex="1" parent="1">
          <mxGeometry x="485" y="1107" width="65" height="30" as="geometry" />
        </mxCell>
        <mxCell id="q0NDTEnve2Rrj_Poey3g-75" value="" style="ellipse;whiteSpace=wrap;html=1;" vertex="1" parent="1">
          <mxGeometry x="695" y="1063" width="115" height="74" as="geometry" />
        </mxCell>
        <mxCell id="q0NDTEnve2Rrj_Poey3g-76" value="&lt;span style=&quot;line-height: 107%;&quot;&gt;&lt;font style=&quot;font-size: 13px;&quot;&gt;Обращение в сервисную службу&amp;nbsp;&lt;/font&gt;&lt;/span&gt;" style="text;html=1;align=center;verticalAlign=middle;whiteSpace=wrap;rounded=0;" vertex="1" parent="1">
          <mxGeometry x="707.5" y="1085" width="90" height="30" as="geometry" />
        </mxCell>
        <mxCell id="q0NDTEnve2Rrj_Poey3g-78" value="" style="rounded=0;whiteSpace=wrap;html=1;fillStyle=cross-hatch;" vertex="1" parent="1">
          <mxGeometry x="10" y="25.5" width="810" height="1124.5" as="geometry" />
        </mxCell>
        <mxCell id="q0NDTEnve2Rrj_Poey3g-79" value="&lt;font style=&quot;font-size: 9px;&quot;&gt;Диаграмма прецедентов&lt;/font&gt;" style="text;html=1;align=center;verticalAlign=middle;whiteSpace=wrap;rounded=0;" vertex="1" parent="1">
          <mxGeometry x="30" y="10" width="110" height="11" as="geometry" />
        </mxCell>
      </root>
    </mxGraphModel>
  </diagram>
</mxfile>
